<svg xmlns="http://www.w3.org/2000/svg" width="220" height="166" fill="none"><g filter="url(#a)"><rect x="22" y="18" width="180" height="130" rx="4" fill="#fff"/></g><path d="M62 18H26a4 4 0 0 0-4 4v122a4 4 0 0 0 4 4h36V18z" fill="#399C97"/><circle cx="93" cy="43" r="15" fill="#975D48"/><circle cx="93" cy="83" r="15" fill="#E9AF58"/><circle cx="93" cy="123" r="15" fill="#399C97"/><path d="M124 28.982h64a4 4 0 0 1 4 4V134a4 4 0 0 1-4 4h-64V28.982z" fill="#E9B99E"/><path d="M124 28v18.509l4.169 3.242a1.493 1.493 0 0 0 1.82 0l1.137-.884c.303-.236.91-.06.91.294v3.125c0 .294.151.53.379.707l15.086 11.73a1.49 1.49 0 0 0 1.819 0l4.7-3.654c.303-.236.91-.06.91.294v8.665c0 .295.151.53.379.708l27.594 21.456L192 94.786l-1.341-63.444c0-1.297-1.365-2.3-2.957-2.3L124 28z" fill="#5AB2AC"/><path d="M124 28.35v4.548l10.726 8.164c.54.408 1.312.408 1.852 0l1.389-1.05c.309-.175.772-.058.772.233v3.266c0 .233.154.525.386.7l17.439 13.294c.54.409 1.312.409 1.852 0l4.939-3.732c.308-.233.771-.058.771.234v8.746c0 .234.155.525.386.7l19.369 14.636V57.68c0-7.347-3.55-14.053-9.492-19.242-.385-.35-.848-.7-1.234-1.05a12.137 12.137 0 0 0-1.466-1.108c-.155-.117-.309-.175-.386-.291-.54-.35-1.08-.758-1.621-1.108-.231-.117-.385-.234-.617-.409-.231-.116-.463-.291-.772-.408-.308-.175-.694-.35-1.003-.525-.694-.408-1.389-.7-2.16-1.05-.155-.116-.386-.174-.618-.29-1.389-.642-2.855-1.167-4.398-1.633-.618-.175-1.158-.35-1.775-.525a35.307 35.307 0 0 0-3.627-.875c-.231-.058-.463-.116-.617-.116-.309-.059-.695-.117-1.003-.175a32.416 32.416 0 0 1-1.081-.175c-.154-.059-.308-.059-.54-.059-.308-.058-.617-.058-.926-.116h-.077c-1.611-.203-4.193-.525-4.875-.525H124v.35z" fill="#399C97"/><path d="M144.299 28s.168.368.555.368c.31 0 .543 0 .852.062h.155c.31 0 .619 0 .929.061h.155c.309 0 .619.062 1.006.062.465.061.852.061 1.316.123h.078c.309.062.619.062.929.123.154 0 .387.061.541.061.388.062.775.124 1.084.185.31.062.697.123 1.007.185.232.061.464.061.619.123 1.239.246 2.477.553 3.638.923.62.184 1.162.369 1.781.553 1.471.493 2.942 1.108 4.413 1.723.232.123.387.185.619.308.697.369 1.471.738 2.167 1.107.31.185.697.37 1.007.554.232.123.542.308.774.43.232.124.465.247.619.431.542.37 1.084.739 1.626 1.17.155.123.31.184.387.307.465.37 1.007.738 1.471 1.17.465.368.852.737 1.239 1.106 5.883 5.415 9.522 12.552 9.522 20.305l.078 22.209c0 .184.198 0 .507 0H192V33.583C192 30.5 188.836 28 184.933 28h-40.634z" fill="#108060"/><path d="M182.866 81.035H192v13.75h-9.134v-13.75z" fill="#00735C"/><path d="M151.408 87.175c.556 23.326 17.423 42.082 38.491 42.969 1.161 0 2.101-.99 2.101-2.211V85.947h-39.542c-.556 0-1.112.546-1.05 1.228z" fill="#6D493C"/><path d="M169.672 105.59h14.209V91.616l-6.166-5.669h-1.877l-6.166 5.669v13.974z" fill="#F0F1F2"/><g filter="url(#b)"><path d="M12 60.403C12 54.105 17.105 49 23.403 49h65.454c6.298 0 11.403 5.105 11.403 11.403s-5.105 11.403-11.403 11.403H23.403C17.105 71.806 12 66.7 12 60.403z" fill="#fff"/></g><path fill-rule="evenodd" clip-rule="evenodd" d="M35.871 59.946c-1.044-.89-2.567-2.19-5.18-2.19a2.087 2.087 0 0 0 0 4.174c1.057 0 1.527.394 2.651 1.345 1.196 1.012 2.843 2.332 5.825 2.332 3.106 0 4.757-1.52 5.938-2.608l.019-.017c1.092-1.005 1.683-1.521 3.05-1.521 1.47 0 2.154.517 3.218 1.376l.082.066c1.162.94 2.765 2.235 5.6 2.235 1.39 0 2.513-.309 3.474-.815.869-.458 1.546-1.054 2.037-1.486l.064-.057c.541-.475.89-.767 1.297-.977.361-.187.84-.342 1.604-.342 1.41 0 2.09.508 3.165 1.376l.091.073c1.15.93 2.756 2.228 5.538 2.228 2.773 0 4.64-1.274 5.945-2.26l.48-.364c.432-.332.747-.573 1.083-.775.392-.234.606-.278.756-.278a2.087 2.087 0 1 0 0-4.174c-1.175 0-2.139.416-2.9.87-.563.338-1.135.778-1.605 1.139l-.328.25c-1.13.854-2.072 1.418-3.431 1.418-1.276 0-1.885-.47-3.007-1.376-1.203-.971-2.855-2.301-5.787-2.301-1.408 0-2.546.304-3.52.807-.904.467-1.597 1.077-2.1 1.518l-.036.032c-.551.485-.892.775-1.292.986-.347.183-.8.334-1.529.334-1.336 0-1.95-.48-3.06-1.376-1.214-.98-2.861-2.301-5.84-2.301-3.029 0-4.659 1.502-5.814 2.567l-.063.058c-1.07.984-1.695 1.521-3.13 1.521-1.468 0-2.151-.518-3.127-1.344l-.168-.143z" fill="#208B86"/><defs><filter id="a" x="10.07" y="7.626" width="203.86" height="153.86" filterUnits="userSpaceOnUse" color-interpolation-filters="sRGB"><feFlood flood-opacity="0" result="BackgroundImageFix"/><feColorMatrix in="SourceAlpha" values="0 0 0 0 0 0 0 0 0 0 0 0 0 0 0 0 0 0 127 0" result="hardAlpha"/><feOffset dy="1.556"/><feGaussianBlur stdDeviation="5.965"/><feColorMatrix values="0 0 0 0 0 0 0 0 0 0 0 0 0 0 0 0 0 0 0.09 0"/><feBlend in2="BackgroundImageFix" result="effect1_dropShadow_2174_66698"/><feColorMatrix in="SourceAlpha" values="0 0 0 0 0 0 0 0 0 0 0 0 0 0 0 0 0 0 127 0" result="hardAlpha"/><feOffset dy="1.037"/><feGaussianBlur stdDeviation=".778"/><feColorMatrix values="0 0 0 0 0 0 0 0 0 0 0 0 0 0 0 0 0 0 0.12 0"/><feBlend in2="effect1_dropShadow_2174_66698" result="effect2_dropShadow_2174_66698"/><feBlend in="SourceGraphic" in2="effect2_dropShadow_2174_66698" result="shape"/></filter><filter id="b" x=".07" y="38.626" width="112.119" height="46.665" filterUnits="userSpaceOnUse" color-interpolation-filters="sRGB"><feFlood flood-opacity="0" result="BackgroundImageFix"/><feColorMatrix in="SourceAlpha" values="0 0 0 0 0 0 0 0 0 0 0 0 0 0 0 0 0 0 127 0" result="hardAlpha"/><feOffset dy="1.556"/><feGaussianBlur stdDeviation="5.965"/><feColorMatrix values="0 0 0 0 0 0 0 0 0 0 0 0 0 0 0 0 0 0 0.09 0"/><feBlend in2="BackgroundImageFix" result="effect1_dropShadow_2174_66698"/><feColorMatrix in="SourceAlpha" values="0 0 0 0 0 0 0 0 0 0 0 0 0 0 0 0 0 0 127 0" result="hardAlpha"/><feOffset dy="1.037"/><feGaussianBlur stdDeviation=".778"/><feColorMatrix values="0 0 0 0 0 0 0 0 0 0 0 0 0 0 0 0 0 0 0.12 0"/><feBlend in2="effect1_dropShadow_2174_66698" result="effect2_dropShadow_2174_66698"/><feBlend in="SourceGraphic" in2="effect2_dropShadow_2174_66698" result="shape"/></filter></defs></svg>