<svg xmlns="http://www.w3.org/2000/svg" width="300" height="126" viewBox="0 0 300 126" fill="none"><path fill-rule="evenodd" clip-rule="evenodd" d="M162.495 17.983c1.516-1.25 3.715-1.212 5.188.088l29.193 25.744 32.98-26.372 4.996 6.248-36 28.787-.086-.107-1.874 2.124-31.942-28.168L61.494 111.55l-5.087-6.175 106.088-87.392z" fill="#399C97"/><path d="M88.038 51.333c0-2.21 1.79-4 4-4h105V110c0 2.21-1.79 4-4 4h-101c-2.21 0-4-1.79-4-4V51.333z" fill="#D9942D" filter="url(#a)"/><path d="M166.038 114h27c2.21 0 4-1.79 4-4V54.404l-83 17.172 52 42.424z" fill="#E0A143"/><path d="M142.538 94.808l54.5-44.444-4-3.03h-101c-3 0-4 3.03-4 3.03l54.5 44.444z" fill="#E9AF58" filter="url(#b)"/><path d="M213.038 46.828c0 9.205-7.387 16.667-16.5 16.667s-16.5-7.462-16.5-16.667c0-9.205 7.387-16.666 16.5-16.666s16.5 7.462 16.5 16.666z" fill="#DE6A5A" filter="url(#c)"/><path d="M201.038 51.08h-2.404V40.263h-2.648c-.563 1.212-1.746 1.91-2.948 2.02v2.645c1.09-.037 2.103-.44 2.517-1.03v7.182h-2.517v2.314h8V51.08z" fill="#fff"/><path d="M237.038 14v26.263l-26-26.263h26z" fill="#399C97"/><defs><filter id="a" x="78.038" y="39.333" width="129" height="86.667" filterUnits="userSpaceOnUse" color-interpolation-filters="sRGB"><feFlood flood-opacity="0" result="BackgroundImageFix"/><feColorMatrix in="SourceAlpha" values="0 0 0 0 0 0 0 0 0 0 0 0 0 0 0 0 0 0 127 0"/><feOffset dy="2"/><feGaussianBlur stdDeviation="5"/><feColorMatrix values="0 0 0 0 0 0 0 0 0 0 0 0 0 0 0 0 0 0 0.12 0"/><feBlend in2="BackgroundImageFix" result="effect1_dropShadow"/><feBlend in="SourceGraphic" in2="effect1_dropShadow" result="shape"/></filter><filter id="b" x="83.038" y="43.333" width="119" height="57.475" filterUnits="userSpaceOnUse" color-interpolation-filters="sRGB"><feFlood flood-opacity="0" result="BackgroundImageFix"/><feColorMatrix in="SourceAlpha" values="0 0 0 0 0 0 0 0 0 0 0 0 0 0 0 0 0 0 127 0"/><feOffset dy="1"/><feGaussianBlur stdDeviation="2.5"/><feColorMatrix values="0 0 0 0 0 0 0 0 0 0 0 0 0 0 0 0 0 0 0.12 0"/><feBlend in2="BackgroundImageFix" result="effect1_dropShadow"/><feBlend in="SourceGraphic" in2="effect1_dropShadow" result="shape"/></filter><filter id="c" x="175.038" y="26.162" width="43" height="43.333" filterUnits="userSpaceOnUse" color-interpolation-filters="sRGB"><feFlood flood-opacity="0" result="BackgroundImageFix"/><feColorMatrix in="SourceAlpha" values="0 0 0 0 0 0 0 0 0 0 0 0 0 0 0 0 0 0 127 0"/><feOffset dy="1"/><feGaussianBlur stdDeviation="2.5"/><feColorMatrix values="0 0 0 0 0 0 0 0 0 0 0 0 0 0 0 0 0 0 0.12 0"/><feBlend in2="BackgroundImageFix" result="effect1_dropShadow"/><feBlend in="SourceGraphic" in2="effect1_dropShadow" result="shape"/></filter></defs></svg>