<svg xmlns="http://www.w3.org/2000/svg" width="216" height="166" fill="none"><g filter="url(#a)"><path d="M194 18H22a4 4 0 0 0-4 4v122a4 4 0 0 0 4 4h172a4 4 0 0 0 4-4V22a4 4 0 0 0-4-4Z" fill="#fff"/></g><path d="M68 100H32a2 2 0 0 0-2 2v36a2 2 0 0 0 2 2h36a2 2 0 0 0 2-2v-36a2 2 0 0 0-2-2Zm48 0H80a2 2 0 0 0-2 2v36a2 2 0 0 0 2 2h36a2 2 0 0 0 2-2v-36a2 2 0 0 0-2-2Z" fill="#E8E9EB"/><path d="M168 100h-36a2 2 0 0 0-2 2v36a2 2 0 0 0 2 2h36a2 2 0 0 0 2-2v-36a2 2 0 0 0-2-2Z" fill="#FFC8B5"/><path d="M194 18H22a4 4 0 0 0-4 4v70h180V22a4 4 0 0 0-4-4Z" fill="#7FBEC6"/><path d="M198 78H18v14h180V78Z" fill="#3C8B96"/><mask id="b" maskUnits="userSpaceOnUse" x="36" y="18" width="80" height="74"><path d="M36 18h80v74H36V18Z" fill="#fff"/></mask><g mask="url(#b)"><path d="M84.91 73.33c3.137 1.393 3.822 3.25 8.33 7.504 4.51 4.255 11.76 5.029 17.443 4.796 1.725-.07 2.818-.505 3.503-1.077.066-1.87-.566-4.096-2.718-5.886-3.626-3.017-10.484-7.66-12.641-11.836-2.157-4.177-4.214-5.493-5.391-6.034-1.178-.54-10.82-1.61-10.82-1.61s-2.02-.246-2.51 1.534c-.489 1.78-1.371 2.63-2.156 4.95-.29.856-.524 1.848-.698 2.823 1.517 2.059 4.754 3.547 7.659 4.836Z" fill="#fff"/><path d="M110.682 85.632c-5.683.233-12.936-.54-17.442-4.797-4.509-4.256-5.194-6.112-8.33-7.503-2.905-1.29-6.142-2.78-7.656-4.834-.295 1.667-.406 3.28-.282 4.06.195 1.238 3.429 2.63 5.978 3.714 2.55 1.083 5.373 4.486 6.803 5.956 1.43 1.47 7.113 5.88 12.797 6.576 5.683.697 9.702.54 10.779-1.16.437-.692.811-1.806.856-3.087-.685.567-1.778 1.004-3.503 1.075Z" fill="#EFEFEF"/><path d="M84.421 51.285s-.295 4.177-1.47 7.04c-1.176 2.863-1.566 5.416-.784 6.343.785.93 2.842-.54 3.919-1.16 1.077-.62 3.136-3.878 9.112-1.667 0 0 1.372-5.913 2.547-9.396l-13.324-1.16Z" fill="#E5B693"/><path d="M87.233 5.165s-4.645 32.062-5.025 35.102c-.38 3.04-1.632 7.472-1.663 7.72-.03.246.415 1.47 1.24 2.074.825.603 6.422 3.807 20.965 5.038 0 0 .907-.052 1.138-1.109.231-1.056 9.382-43.57 9.727-45.53L87.233 5.166Z" fill="#373A37"/><path d="M49.927 71.623A16.01 16.01 0 0 0 61 67.87c1.765-1.51 2.255-8.316 4.801-12.107 2.547-3.79 5.684-7.426 6.371-8.742.287-.553.835-.983 1.222-1.613-.168-.441-.332-.822-.437-1.094-.393-1.006-2.45-2.786-3.724-4.643-1.275-1.856-2.647-2.089-2.647-2.089s-7.448 6.809-9.605 6.809-2.352.62-3.036 1.78c-.685 1.16-.588 5.416-2.057 9.36-1.388 3.725-6.005 7.312-6.766 10.956.327 2.146 1.404 4.992 4.804 5.136Z" fill="#fff"/><path d="M73.393 45.407c-.385.63-.933 1.06-1.222 1.614-.685 1.316-3.822 4.95-6.37 8.742-2.548 3.79-4.781 11.45-6.546 12.959-1.764 1.51-3.892 2.873-9.33 2.9-2.892.015-4.478-2.99-4.804-5.135a5.017 5.017 0 0 0-.095.647c-.295 3.867 1.96 6.653 4.898 7.349 2.94.697 5.781.077 10.095-2.397 4.311-2.476 4.459-6.121 6.566-11.911.945-2.601 6.566-8.975 7.25-10.678.503-1.241.013-2.894-.442-4.09Z" fill="#EFEFEF"/><path d="M65.803 34.568s-.098 1.857.785 3.017c.882 1.16 3.913 6.653-.788 9.44 0 0-.977-2.321-4.798-2.244-3.822.077-5.391 0-5.391 0s.195-2.55 0-3.479c-.195-.929-.588-5.03-.588-5.03l10.78-1.704Z" fill="#E5B693"/><path d="M45.675 9.797s4.474 27.516 4.959 28.585c.485 1.068 1.518 1.562 3.033 1.241 1.514-.32 12.463-4.623 14.734-6.6 0 0 1.1-.465.917-1.101-.184-.637-5.383-32.375-4.044-27.376L45.675 9.797Z" fill="#373A37"/></g><g filter="url(#c)"><path d="M122 18h72a4 4 0 0 1 4 4v122a4 4 0 0 1-4 4h-72V18Z" fill="#fff"/></g><path d="M181 30h-44a3 3 0 1 0 0 6h44a3 3 0 1 0 0-6Z" fill="#9FA5AB"/><path d="M172.5 46h-36a2.5 2.5 0 1 0 0 5h36a2.5 2.5 0 1 0 0-5Zm-15 15h-21a2.5 2.5 0 1 0 0 5h21a2.5 2.5 0 1 0 0-5Zm3 14h-24a2.5 2.5 0 1 0 0 5h24a2.5 2.5 0 1 0 0-5Zm-15 60h-9a2.5 2.5 0 1 0 0 5h9a2.5 2.5 0 1 0 0-5Zm18 0h-9a2.5 2.5 0 1 0 0 5h9a2.5 2.5 0 1 0 0-5Zm18 0h-9a2.5 2.5 0 1 0 0 5h9a2.5 2.5 0 1 0 0-5Z" fill="#E8E9EB"/><defs><filter id="a" x="6.07" y="7.626" width="203.86" height="153.86" filterUnits="userSpaceOnUse" color-interpolation-filters="sRGB"><feFlood flood-opacity="0" result="BackgroundImageFix"/><feColorMatrix in="SourceAlpha" values="0 0 0 0 0 0 0 0 0 0 0 0 0 0 0 0 0 0 127 0" result="hardAlpha"/><feOffset dy="1.556"/><feGaussianBlur stdDeviation="5.965"/><feColorMatrix values="0 0 0 0 0 0 0 0 0 0 0 0 0 0 0 0 0 0 0.09 0"/><feBlend in2="BackgroundImageFix" result="effect1_dropShadow_2379_65662"/><feColorMatrix in="SourceAlpha" values="0 0 0 0 0 0 0 0 0 0 0 0 0 0 0 0 0 0 127 0" result="hardAlpha"/><feOffset dy="1.037"/><feGaussianBlur stdDeviation=".778"/><feColorMatrix values="0 0 0 0 0 0 0 0 0 0 0 0 0 0 0 0 0 0 0.12 0"/><feBlend in2="effect1_dropShadow_2379_65662" result="effect2_dropShadow_2379_65662"/><feBlend in="SourceGraphic" in2="effect2_dropShadow_2379_65662" result="shape"/></filter><filter id="c" x="116" y="14" width="84" height="138" filterUnits="userSpaceOnUse" color-interpolation-filters="sRGB"><feFlood flood-opacity="0" result="BackgroundImageFix"/><feColorMatrix in="SourceAlpha" values="0 0 0 0 0 0 0 0 0 0 0 0 0 0 0 0 0 0 127 0" result="hardAlpha"/><feOffset dx="-2"/><feGaussianBlur stdDeviation="2"/><feComposite in2="hardAlpha" operator="out"/><feColorMatrix values="0 0 0 0 0 0 0 0 0 0 0 0 0 0 0 0 0 0 0.1 0"/><feBlend in2="BackgroundImageFix" result="effect1_dropShadow_2379_65662"/><feBlend in="SourceGraphic" in2="effect1_dropShadow_2379_65662" result="shape"/></filter></defs></svg>