<svg xmlns="http://www.w3.org/2000/svg" width="220" height="166" fill="none"><g filter="url(#a)"><path d="M194 18H22a4 4 0 0 0-4 4v122a4 4 0 0 0 4 4h172a4 4 0 0 0 4-4V22a4 4 0 0 0-4-4z" fill="#fff"/><path d="M58 18H22a4 4 0 0 0-4 4v122a4 4 0 0 0 4 4h36V18z" fill="#00735C"/></g><path d="M183 48H74a4 4 0 0 0-4 4v62a4 4 0 0 0 4 4h109a4 4 0 0 0 4-4V52a4 4 0 0 0-4-4zm-1 76H74a4 4 0 0 0-4 4v16a4 4 0 0 0 4 4h108a4 4 0 0 0 4-4v-16a4 4 0 0 0-4-4z" fill="#F0F1F2"/><path d="M106 26H73a3 3 0 1 0 0 6h33a3 3 0 1 0 0-6z" fill="#B6BABF"/><path d="M26 33.292c1.781 0 1.88-2.34 3.958-2.34 2.128 0 2.128 2.638 4.206 2.638s2.177-2.34 4.156-2.34c1.98 0 1.93 2.34 3.958 2.34s2.178-2.34 4.107-2.34 2.623 2.34 3.86 2.34" stroke="#00996E" stroke-width="2" stroke-linecap="round" stroke-linejoin="round"/><g filter="url(#b)"><path d="M204 62h-98a4 4 0 0 0-4 4v66a4 4 0 0 0 4 4h98a4 4 0 0 0 4-4V66a4 4 0 0 0-4-4z" fill="#fff"/></g><path d="M204 62h-98a4 4 0 0 0-4 4v8h106v-8a4 4 0 0 0-4-4z" fill="#237883"/><path d="M198 80h-86a4 4 0 0 0-4 4v42a4 4 0 0 0 4 4h86a4 4 0 0 0 4-4V84a4 4 0 0 0-4-4z" fill="#7FBEC6"/><path d="M108 125h94v1a4 4 0 0 1-4 4h-86a4 4 0 0 1-4-4v-1z" fill="#5BA7B1"/><path d="M190 90h-22a2 2 0 1 0 0 4h22a2 2 0 1 0 0-4zm0 8h-29a2 2 0 1 0 0 4h29a2 2 0 1 0 0-4z" fill="#fff"/><path d="M119.361 110.016s-2.077 5.797-1.099 11.5h39.139c-.341-2.639-2.218-4.619-4.606-4.996l-.426-.094c-4.094-.565-7.932-2.168-11.429-4.619L133.946 107c-2.644 3.865-7.676 5.844-11.77 4.147l-2.815-1.131z" fill="#3C8B96"/><path d="M157.401 121.517v3.225c0 .461-.174.922-.523.922h-37.893c-.492 0-.985-.422-.985-1.037v-3.11h39.401z" fill="#fff"/><defs><filter id="a" x="13" y="14" width="190" height="140" filterUnits="userSpaceOnUse" color-interpolation-filters="sRGB"><feFlood flood-opacity="0" result="BackgroundImageFix"/><feColorMatrix in="SourceAlpha" values="0 0 0 0 0 0 0 0 0 0 0 0 0 0 0 0 0 0 127 0" result="hardAlpha"/><feOffset dy="1"/><feGaussianBlur stdDeviation="2.5"/><feColorMatrix values="0 0 0 0 0 0 0 0 0 0 0 0 0 0 0 0 0 0 0.3 0"/><feBlend in2="BackgroundImageFix" result="effect1_dropShadow_2157_65354"/><feBlend in="SourceGraphic" in2="effect1_dropShadow_2157_65354" result="shape"/></filter><filter id="b" x="90.07" y="51.626" width="129.86" height="97.86" filterUnits="userSpaceOnUse" color-interpolation-filters="sRGB"><feFlood flood-opacity="0" result="BackgroundImageFix"/><feColorMatrix in="SourceAlpha" values="0 0 0 0 0 0 0 0 0 0 0 0 0 0 0 0 0 0 127 0" result="hardAlpha"/><feOffset dy="1.556"/><feGaussianBlur stdDeviation="5.965"/><feColorMatrix values="0 0 0 0 0 0 0 0 0 0 0 0 0 0 0 0 0 0 0.09 0"/><feBlend in2="BackgroundImageFix" result="effect1_dropShadow_2157_65354"/><feColorMatrix in="SourceAlpha" values="0 0 0 0 0 0 0 0 0 0 0 0 0 0 0 0 0 0 127 0" result="hardAlpha"/><feOffset dy="1.037"/><feGaussianBlur stdDeviation=".778"/><feColorMatrix values="0 0 0 0 0 0 0 0 0 0 0 0 0 0 0 0 0 0 0.12 0"/><feBlend in2="effect1_dropShadow_2157_65354" result="effect2_dropShadow_2157_65354"/><feBlend in="SourceGraphic" in2="effect2_dropShadow_2157_65354" result="shape"/></filter></defs></svg>