<svg xmlns="http://www.w3.org/2000/svg" width="220" height="166" fill="none"><g filter="url(#a)"><path d="M22 22a4 4 0 0 1 4-4h172a4 4 0 0 1 4 4v122a4 4 0 0 1-4 4H26a4 4 0 0 1-4-4V22Z" fill="#fff"/></g><path d="M80 117H44a2 2 0 0 0-2 2v29h40v-29a2 2 0 0 0-2-2Zm50 0H94a2 2 0 0 0-2 2v29h40v-29a2 2 0 0 0-2-2Zm50 0h-36a2 2 0 0 0-2 2v29h40v-29a2 2 0 0 0-2-2Z" fill="#F0F1F2"/><path d="M198 18H26a4 4 0 0 0-4 4v82h180V22a4 4 0 0 0-4-4Z" fill="#7FBEC6"/><path d="M34 77a2 2 0 0 1 2-2h34a2 2 0 1 1 0 4H36a2 2 0 0 1-2-2Zm0 9a2 2 0 0 1 2-2h45a2 2 0 1 1 0 4H36a2 2 0 0 1-2-2Z" fill="#fff"/><mask id="b" maskUnits="userSpaceOnUse" x="125" y="18" width="77" height="86"><path d="M125 18h77v86h-77V18Z" fill="#fff"/></mask><g mask="url(#b)" fill-rule="evenodd" clip-rule="evenodd"><path d="M204.402 56.175V81.64l-7.049 2.846v.007l-1.279.513-6.922-16.458V36.023c4.309 1.447 8.555 4.285 10.835 9.684l4.415 10.468Z" fill="#E8E9EB"/><path d="M189.15 36.081v86.355h-48.914V92.749L130 60.4c1.502-12.267 9.607-18.192 18.977-21.27a54.818 54.818 0 0 1 3.563-1.038h.014c8.126-2.06 16.667-2.39 22.39-3.127l.622-.086s.164-.029.472-.057a30.716 30.716 0 0 1 3.534-.186c2.588 0 6.101.279 9.578 1.445" fill="#F0F1F2"/><path d="M130 92.862h10.166L130 60.514v32.347Z" fill="#E8E9EB"/><path d="M204.4 81.771v22.338l-4.039 14.562-2.612 3.766h-7.362l-.313-2.195 4.196-6.908 3.063-19.451a29.385 29.385 0 0 0-.017-9.242v-.008l7.084-2.862Zm-64.233 11.09v19.715l-7.489 9.86-1.108-13.184c-.423-5.027-.133-10.108 1.081-15.002.114-.465.237-.928.367-1.388h7.149Z" fill="#6D493C"/><path d="M175.289 18v.109c0 1.204-.442 2.365-1.233 3.221l-2.297 2.496-.167.181V18h3.697Zm.279 16.567-.429.384-21.882 3.283-1.257.547V24l4.628 5.11a7.017 7.017 0 0 0 5.187 2.304h1.767a6.979 6.979 0 0 0 5.655-2.88c1.437 6.68 6.331 6.033 6.331 6.033Z" fill="#50372E"/><path d="M175.748 34.636c-3.422 5.036-9.076 8.318-15.467 8.318-4.251 0-8.176-1.454-11.336-3.898a52.733 52.733 0 0 1 3.529-1.065h.014l9.24-1.391 12.936-1.817.617-.089s.162-.029.467-.058ZM172.978 18a16.102 16.102 0 0 1-1.189 5.676c-.189.488-.407.968-.656 1.435l-1.312 2.509a5.94 5.94 0 0 1-.612.947v.007c-1.319 1.76-3.441 2.827-5.737 2.827h-1.793a7.233 7.233 0 0 1-5.264-2.262l-4.694-5.018v-6.12h21.257Z" fill="#6D493C"/><path d="M148 18h4v7l-3.273-5.48A9.226 9.226 0 0 1 148 18" fill="#50372E"/><path d="M158.65 23.945s2.151-2.056 4.201-1.043c2.185-.614 2.767.614 3.193 1.35-2.147 2.357-6.92.456-7.394-.307" fill="#DE6A5A"/><path d="m151.721 53.67 24.029-3.322v28.1l-24.029 3.323V53.67Z" fill="#7FBEC6"/><path d="M175.749 50.347V64.88l-7.684 9.035-6.609-7.766 2.51-3.358h-5.247a25.62 25.62 0 0 1-4.227-9.484l21.257-2.96Zm-6.468 28.82-8.945 1.217a17.836 17.836 0 0 1-1.025-.916l-2.612-2.56 2.312-2.268h-4.632l-.909-.88 1.611-1.574h-3.214l-.146-.143v-5.522c1.838.035 4.121.372 6.741 1.337a17.804 17.804 0 0 1 10.819 11.31Z" fill="#108060"/></g><g filter="url(#c)"><path d="M12 32a4 4 0 0 1 4-4h79a4 4 0 0 1 4 4v29a4 4 0 0 1-4 4H16a4 4 0 0 1-4-4V32Z" fill="#fff"/></g><path fill-rule="evenodd" clip-rule="evenodd" d="M26.837 42.484c.59-.537 1.464-.695 2.376-.695 3.58 0 5.821 3.072 6.211 5.918.104.76.086 1.544-.085 2.293.278.143.558.28.839.412 1.964.92 3.895 1.485 5.455 1.485h40.572v2H41.633c-1.979 0-4.217-.697-6.303-1.674a25.82 25.82 0 0 1-.8-.391l-.064.086c-.931 1.24-2.446 1.98-4.461 1.98h-9.004l-.001-2h9.005c1.397 0 2.25-.458 2.758-1.05a27.08 27.08 0 0 1-3.171-2.233c-.8-.659-1.504-1.332-2.055-1.98-.54-.634-.987-1.308-1.193-1.97-.214-.692-.199-1.55.493-2.181Zm6.642 6.456c.02-.307.01-.63-.036-.961-.303-2.209-1.97-4.19-4.23-4.19-.367 0-.626.034-.8.08a.898.898 0 0 0-.19.07.853.853 0 0 0 .031.133c.089.285.338.716.806 1.267.456.536 1.069 1.127 1.803 1.732a24.787 24.787 0 0 0 2.616 1.87Zm-5.257-5.048c.001 0 .001.008-.002.019 0-.015.001-.02.002-.02Z" fill="#42474C"/><path fill-rule="evenodd" clip-rule="evenodd" d="M85.219 58V35h1.562v23h-1.562Z" fill="#00996E"/><defs><filter id="a" x="10.07" y="7.626" width="203.86" height="153.86" filterUnits="userSpaceOnUse" color-interpolation-filters="sRGB"><feFlood flood-opacity="0" result="BackgroundImageFix"/><feColorMatrix in="SourceAlpha" values="0 0 0 0 0 0 0 0 0 0 0 0 0 0 0 0 0 0 127 0" result="hardAlpha"/><feOffset dy="1.556"/><feGaussianBlur stdDeviation="5.965"/><feColorMatrix values="0 0 0 0 0 0 0 0 0 0 0 0 0 0 0 0 0 0 0.09 0"/><feBlend in2="BackgroundImageFix" result="effect1_dropShadow_2379_65967"/><feColorMatrix in="SourceAlpha" values="0 0 0 0 0 0 0 0 0 0 0 0 0 0 0 0 0 0 127 0" result="hardAlpha"/><feOffset dy="1.037"/><feGaussianBlur stdDeviation=".778"/><feColorMatrix values="0 0 0 0 0 0 0 0 0 0 0 0 0 0 0 0 0 0 0.12 0"/><feBlend in2="effect1_dropShadow_2379_65967" result="effect2_dropShadow_2379_65967"/><feBlend in="SourceGraphic" in2="effect2_dropShadow_2379_65967" result="shape"/></filter><filter id="c" x=".07" y="17.626" width="110.86" height="60.86" filterUnits="userSpaceOnUse" color-interpolation-filters="sRGB"><feFlood flood-opacity="0" result="BackgroundImageFix"/><feColorMatrix in="SourceAlpha" values="0 0 0 0 0 0 0 0 0 0 0 0 0 0 0 0 0 0 127 0" result="hardAlpha"/><feOffset dy="1.556"/><feGaussianBlur stdDeviation="5.965"/><feColorMatrix values="0 0 0 0 0 0 0 0 0 0 0 0 0 0 0 0 0 0 0.09 0"/><feBlend in2="BackgroundImageFix" result="effect1_dropShadow_2379_65967"/><feColorMatrix in="SourceAlpha" values="0 0 0 0 0 0 0 0 0 0 0 0 0 0 0 0 0 0 127 0" result="hardAlpha"/><feOffset dy="1.037"/><feGaussianBlur stdDeviation=".778"/><feColorMatrix values="0 0 0 0 0 0 0 0 0 0 0 0 0 0 0 0 0 0 0.12 0"/><feBlend in2="effect1_dropShadow_2379_65967" result="effect2_dropShadow_2379_65967"/><feBlend in="SourceGraphic" in2="effect2_dropShadow_2379_65967" result="shape"/></filter></defs></svg>