<svg xmlns="http://www.w3.org/2000/svg" width="313" height="313" fill="none"><path fill="#fff" d="M0 0h313v313H0z"/><path d="M155.39 226.026c35.223 0 63.776-28.554 63.776-63.776 0-35.222-28.553-63.776-63.776-63.776-35.222 0-63.776 28.554-63.776 63.776 0 35.222 28.554 63.776 63.776 63.776z" fill="#F0F1F2"/><path d="M126.62 195.833h14.741L136 210.574h-4.02l-5.36-14.741zm44.222 0h14.74l-5.36 14.741h-4.02l-5.36-14.741z" fill="#9FA5AB"/><path d="M110.146 131.668h85.408c1.745 0 2.899 1.792 2.432 3.477l-9.164 33.189a4.661 4.661 0 0 1-3.913 3.378l-53.827 6.666-20.936-46.71z" fill="#B6BABF"/><path d="M210.19 194.847c-11.158 18.678-31.241 31.415-54.517 31.415-23.276 0-43.745-12.501-54.902-31.179l109.419-.236z" fill="#D2D5D9"/><path d="M124.886 124.397a4 4 0 0 1 4-4h19.747a4 4 0 0 1 4 4v22.012h-25.747a2 2 0 0 1-2-2v-20.012z" fill="#9FA5AB"/><path d="M124.886 122.397a2 2 0 0 1 2-2h23.747a2 2 0 0 1 2 2v9.272h-27.747v-9.272z" fill="#828A91"/><path d="M133.99 218.377a7.37 7.37 0 1 0 0-14.74 7.37 7.37 0 0 0 0 14.74zm44.222 0a7.37 7.37 0 1 0 0-14.74 7.37 7.37 0 0 0 0 14.74z" fill="#0B614E"/><path d="M127.426 200.169c-2.709 0-5.455-1.272-7.6-3.341-2.603-2.513-4.16-6.102-4.16-9.601 0-.233.007-.459.022-.685.196-3.333 1.941-6.395 4.778-8.412l4.951-3.521-22.572-48.493-15.485-4.868a3.366 3.366 0 0 1-2.204-4.221 3.366 3.366 0 0 1 4.22-2.204l16.892 5.312c.903.286 1.64.933 2.039 1.79l24.378 52.376a3.368 3.368 0 0 1-1.098 4.16l-7.239 5.147c-1.151.82-1.881 2.061-1.956 3.325-.007.098-.007.196-.007.294 0 1.655.827 3.521 2.106 4.763.512.496 1.558 1.309 2.829 1.309h63.465c1.858 0 3.468 1.543 3.468 3.401 0 1.859-1.61 3.469-3.468 3.469h-63.359z" fill="#1A7F61"/><path d="m106.276 120.135-16.9-5.304a3.366 3.366 0 0 0-4.22 2.204 3.365 3.365 0 0 0 2.204 4.221l15.169 4.771a64.681 64.681 0 0 1 4.559-5.478 3.19 3.19 0 0 0-.812-.414z" fill="#1A7F61"/><path d="m131.259 148.221 3.593 23.603c.123.808.867 1.37 1.678 1.267l32.414-4.221a1.505 1.505 0 0 0 1.304-1.671l-2.895-24.249a1.505 1.505 0 0 0-1.714-1.31l-33.112 4.866a1.506 1.506 0 0 0-1.268 1.715z" fill="#9FA5AB"/><path d="M177 113c0 14.359 11.641 26 26 26s26-11.641 26-26c0-14.36-11.641-26-26-26s-26 11.64-26 26z" fill="#1A7F61"/><path d="m192.546 115.699 5.146 5.004c.765.744 2.01.744 2.775 0l12.99-12.629a1.763 1.763 0 0 0 0-2.545 1.885 1.885 0 0 0-2.618 0l-11.764 11.438-3.922-3.813a1.883 1.883 0 0 0-2.617 0 1.768 1.768 0 0 0 .01 2.545z" fill="#fff"/></svg>