<svg xmlns="http://www.w3.org/2000/svg" width="313" height="313" fill="none"><path fill="#fff" d="M0 0h313v313H0z"/><path d="M156.39 226.026c35.222 0 63.776-28.554 63.776-63.776 0-35.222-28.554-63.776-63.776-63.776-35.223 0-63.776 28.554-63.776 63.776 0 35.222 28.553 63.776 63.776 63.776z" fill="#F0F1F2"/><path d="M127.62 195.833h14.741L137 210.574h-4.02l-5.36-14.741zm44.222 0h14.74l-5.36 14.741h-4.02l-5.36-14.741z" fill="#9FA5AB"/><path d="M111.146 131.668h85.408c1.745 0 2.899 1.792 2.432 3.477l-9.164 33.189a4.661 4.661 0 0 1-3.913 3.378l-53.827 6.666-20.936-46.71z" fill="#B6BABF"/><path d="M211.19 194.847c-11.158 18.678-31.241 31.415-54.517 31.415-23.276 0-43.745-12.501-54.902-31.179l109.419-.236z" fill="#D2D5D9"/><path d="M125.886 124.397a4 4 0 0 1 4-4h19.747a4 4 0 0 1 4 4v22.013h-25.747a2 2 0 0 1-2-2v-20.013z" fill="#9FA5AB"/><path d="M125.886 122.397a2 2 0 0 1 2-2h23.747a2 2 0 0 1 2 2v9.272h-27.747v-9.272z" fill="#828A91"/><path d="M134.99 218.377a7.37 7.37 0 1 0 0-14.741 7.37 7.37 0 0 0 0 14.741zm44.222 0a7.37 7.37 0 1 0 0-14.74 7.37 7.37 0 0 0 0 14.74z" fill="#0B614E"/><path d="M128.426 200.168c-2.709 0-5.455-1.272-7.6-3.341-2.603-2.513-4.16-6.102-4.16-9.6 0-.234.007-.459.022-.685.196-3.333 1.941-6.396 4.778-8.412l4.951-3.521-22.572-48.493-15.485-4.868a3.366 3.366 0 0 1-2.204-4.221 3.366 3.366 0 0 1 4.22-2.205l16.892 5.312c.903.286 1.64.933 2.039 1.791l24.378 52.375a3.369 3.369 0 0 1-1.098 4.161l-7.239 5.147c-1.151.82-1.881 2.061-1.956 3.325-.007.098-.007.196-.007.294 0 1.655.827 3.521 2.106 4.762.512.497 1.558 1.31 2.829 1.31h63.465c1.858 0 3.468 1.543 3.468 3.401 0 1.858-1.61 3.468-3.468 3.468h-63.359z" fill="#1A7F61"/><path d="m107.276 120.135-16.9-5.305a3.366 3.366 0 0 0-4.22 2.205 3.366 3.366 0 0 0 2.204 4.221l15.169 4.77a64.825 64.825 0 0 1 4.559-5.477 3.19 3.19 0 0 0-.812-.414z" fill="#0B614E"/><path d="m132.259 148.221 3.593 23.603c.123.808.867 1.37 1.678 1.267l32.414-4.221a1.505 1.505 0 0 0 1.304-1.671l-2.895-24.249a1.505 1.505 0 0 0-1.714-1.31l-33.112 4.866a1.506 1.506 0 0 0-1.268 1.715z" fill="#9FA5AB"/><circle cx="201" cy="113" r="26" fill="#DFA04C"/><path d="M213.9 114.6a9.3 9.3 0 0 1-9.3 9.3h-13.95a1.55 1.55 0 1 1 0-3.1h13.95a6.2 6.2 0 0 0 0-12.4h-10.115l3.461 3.554a1.553 1.553 0 0 1-.019 2.173 1.553 1.553 0 0 1-2.173.019l-6.2-6.2a1.554 1.554 0 0 1 0-2.192l6.2-6.2a1.55 1.55 0 1 1 2.192 2.192l-3.461 3.554H204.6a9.3 9.3 0 0 1 9.3 9.3z" fill="#fff"/></svg>