<svg xmlns="http://www.w3.org/2000/svg" width="313" height="313" fill="none"><path fill="#fff" d="M0 0h313v313H0z"/><path d="M220.397 167.893c0 10.054-2.195 19.605-6.138 28.186-10.686 23.32-34.234 39.513-61.56 39.513-27.327 0-50.875-16.193-61.56-39.513C87.196 187.498 85 177.947 85 167.893c0-37.39 30.309-67.699 67.699-67.699s67.698 30.309 67.698 67.699z" fill="#F0F1F2"/><mask id="a" maskUnits="userSpaceOnUse" x="85" y="78" width="136" height="158"><path d="M220.973 115.209c0 10.097-2.205 71.597-6.165 80.215-10.731 23.418-34.392 40.128-61.834 40.128-27.66.25-52.198-16.624-61.81-40.128C87.206 186.806 85 125.306 85 115.209 85 77.66 115.438 78 152.986 78c37.549 0 67.987-.34 67.987 37.209z" fill="#fff"/></mask><g mask="url(#a)"><g filter="url(#b)"><path d="M101.883 101.644c0-.807.667-1.461 1.492-1.461h99.984c.824 0 1.492.654 1.492 1.461v135.185c0 .808-.668 1.461-1.492 1.461h-99.984c-.825 0-1.492-.653-1.492-1.461V101.644z" fill="#F0F1F2"/></g><path d="M101.883 178.845h102.968v55.32c0 .774-.668 1.4-1.492 1.4h-99.984c-.825 0-1.492-.626-1.492-1.4v-55.32z" fill="#fff"/><path d="M183.415 190.086h-60.857c-1.462 0-2.646 1.342-2.646 3 0 1.657 1.184 3 2.646 3h60.857c1.462 0 2.646-1.343 2.646-3 0-1.658-1.186-3-2.646-3z" fill="#D2D5D9"/><path d="M170.111 206.623h-34.452c-3.171 0-5.742 2.674-5.742 5.972 0 3.297 2.571 5.972 5.742 5.972h34.452c3.171 0 5.743-2.675 5.743-5.972 0-3.298-2.572-5.972-5.743-5.972z" fill="#108060"/></g><path d="M162.084 100.195h40.461a2 2 0 0 1 2 2v75.685h-42.461v-77.685z" fill="#F0F1F2"/><path d="M189.971 140.308c0 4.675-1.2 7.74-2.845 11.835h-68.279c-1.644-4.095-2.845-7.16-2.845-11.835h73.969z" fill="#DE6A5A"/><path d="M187.012 152.143c-5.336 15.596-18.555 26.629-34.026 26.629-15.467 0-28.689-11.036-34.026-26.629h68.052z" fill="#EA8572"/><circle cx="202.46" cy="108.186" r="26" fill="#5EA7B0"/><path d="M214.638 111.233a9.301 9.301 0 0 1-9.3 9.3h-13.95a1.554 1.554 0 0 1-1.55-1.55 1.553 1.553 0 0 1 1.55-1.55h13.95a6.2 6.2 0 0 0 0-12.4h-10.115l3.461 3.554a1.549 1.549 0 0 1-2.192 2.191l-6.2-6.2a1.549 1.549 0 0 1 0-2.191l6.2-6.2a1.543 1.543 0 0 1 1.102-.474 1.546 1.546 0 0 1 1.448.964 1.545 1.545 0 0 1-.011 1.198c-.081.19-.199.36-.347.503l-3.461 3.555h10.115a9.298 9.298 0 0 1 9.3 9.3z" fill="#fff"/><defs><filter id="b" x="91.883" y="92.183" width="122.968" height="158.107" filterUnits="userSpaceOnUse" color-interpolation-filters="sRGB"><feFlood flood-opacity="0" result="BackgroundImageFix"/><feColorMatrix in="SourceAlpha" values="0 0 0 0 0 0 0 0 0 0 0 0 0 0 0 0 0 0 127 0" result="hardAlpha"/><feOffset dy="2"/><feGaussianBlur stdDeviation="5"/><feColorMatrix values="0 0 0 0 0 0 0 0 0 0 0 0 0 0 0 0 0 0 0.3 0"/><feBlend in2="BackgroundImageFix" result="effect1_dropShadow_1191_17654"/><feBlend in="SourceGraphic" in2="effect1_dropShadow_1191_17654" result="shape"/></filter></defs></svg>